<?xml version="1.0" standalone="no"?>
<!DOCTYPE svg PUBLIC "-//W3C//DTD SVG 20010904//EN"
 "http://www.w3.org/TR/2001/REC-SVG-20010904/DTD/svg10.dtd">
<svg version="1.0" xmlns="http://www.w3.org/2000/svg"
 width="700.000000pt" height="700.000000pt" viewBox="0 0 700.000000 700.000000"
 preserveAspectRatio="xMidYMid meet">
<metadata>
Created by potrace 1.11, written by Peter Selinger 2001-2013
</metadata>
<g transform="translate(0.000000,700.000000) scale(0.100000,-0.100000)"
fill="#000000" stroke="none">
<path d="M882 6115 c-4 -5 -7 -34 -7 -64 l-1 -54 111 -52 c60 -29 160 -76 220
-105 61 -29 166 -79 235 -112 68 -32 127 -61 130 -64 3 -3 5 -978 5 -2167 l0
-2161 -130 -62 c-71 -34 -193 -92 -270 -129 -77 -37 -174 -83 -215 -102 -41
-19 -77 -39 -80 -44 -3 -5 -6 -35 -5 -66 l0 -58 1530 1 c1367 1 1696 4 1800
19 16 2 68 9 115 15 141 18 149 20 313 56 837 185 1374 644 1473 1259 17 110
22 269 10 385 -40 408 -285 729 -731 957 -198 101 -578 215 -825 247 -19 3
-84 11 -145 20 -225 31 -393 38 -928 39 l-417 1 2 906 3 905 840 1 841 2 103
-152 c56 -83 150 -221 208 -306 58 -85 149 -218 201 -295 147 -216 127 -196
197 -193 l60 3 0 690 0 690 -2318 0 c-1545 0 -2321 -3 -2325 -10z m2723 -2609
c338 -34 582 -135 759 -312 81 -81 163 -223 206 -356 42 -133 61 -420 39 -588
-15 -117 -58 -256 -110 -360 -48 -96 -55 -106 -142 -211 -153 -185 -432 -325
-707 -354 -30 -4 -173 -8 -317 -10 l-263 -4 0 1098 c0 604 2 1100 5 1102 6 7
458 2 530 -5z"/>
</g>
</svg>
